<?xml version="1.0" standalone="no"?>
<!DOCTYPE svg PUBLIC "-//W3C//DTD SVG 20010904//EN"
 "http://www.w3.org/TR/2001/REC-SVG-20010904/DTD/svg10.dtd">
<svg version="1.0" xmlns="http://www.w3.org/2000/svg"
 width="700.000000pt" height="700.000000pt" viewBox="0 0 700.000000 700.000000"
 preserveAspectRatio="xMidYMid meet">
<metadata>
Created by potrace 1.14, written by Peter Selinger 2001-2017
</metadata>
<g transform="translate(0.000000,700.000000) scale(0.100000,-0.100000)"
fill="#000000" stroke="none">
<path d="M0 5031 l0 -439 918 0 c504 0 937 -3 962 -7 238 -35 381 -114 469
-259 94 -157 103 -415 21 -583 -69 -140 -219 -250 -380 -278 -18 -3 -36 -7
-39 -9 -23 -14 -288 -18 -1063 -19 l-888 0 0 -431 0 -431 863 0 862 1 355
-523 355 -522 598 -1 c401 0 596 3 592 10 -4 6 -43 63 -87 128 -116 169 -242
353 -312 457 -34 50 -63 92 -67 95 -7 7 -239 348 -239 352 0 2 489 3 1086 3
l1086 0 120 -175 c65 -96 159 -233 207 -305 49 -71 121 -177 161 -235 39 -58
106 -156 147 -217 l76 -113 599 0 599 0 -44 62 c-24 35 -143 207 -264 383
-121 176 -248 362 -284 413 -35 52 -68 101 -74 110 -5 10 -12 19 -15 22 -3 3
-43 60 -88 127 l-82 121 78 42 c337 182 567 479 652 844 30 126 32 141 35 346
3 190 -8 287 -48 435 -81 298 -282 569 -550 743 -203 132 -507 239 -757 267
-30 4 -66 9 -80 13 -14 4 -1252 8 -2752 9 l-2728 3 0 -439z m5168 -442 c395
-12 625 -222 624 -569 -1 -180 -44 -300 -146 -402 -84 -85 -210 -146 -336
-163 -25 -3 -58 -9 -75 -11 -37 -7 -1773 -9 -1780 -2 -2 2 6 35 19 74 23 65
48 163 60 229 25 138 25 385 1 530 -11 72 -48 209 -67 253 -10 24 -18 48 -18
52 0 5 24 10 53 12 58 3 1549 1 1665 -3z"/>
</g>
</svg>
